<mxfile host="app.diagrams.net" modified="2022-12-06T19:13:13.548Z" agent="5.0 (Macintosh; Intel Mac OS X 10_15_7) AppleWebKit/537.36 (KHTML, like Gecko) Chrome/107.0.0.0 Safari/537.36" etag="YtEtRM1me90i7yPr_NAI" version="20.6.0" type="github">
  <diagram id="C5RBs43oDa-KdzZeNtuy" name="Page-1">
    <mxGraphModel dx="2133" dy="871" grid="1" gridSize="10" guides="1" tooltips="1" connect="1" arrows="1" fold="1" page="1" pageScale="1" pageWidth="827" pageHeight="1169" math="0" shadow="0">
      <root>
        <mxCell id="WIyWlLk6GJQsqaUBKTNV-0" />
        <mxCell id="WIyWlLk6GJQsqaUBKTNV-1" parent="WIyWlLk6GJQsqaUBKTNV-0" />
        <mxCell id="nTinVmcu9oHWkOwA1oCq-3" value="" style="edgeStyle=orthogonalEdgeStyle;rounded=0;orthogonalLoop=1;jettySize=auto;html=1;fontFamily=Times New Roman;fontSize=12;" edge="1" parent="WIyWlLk6GJQsqaUBKTNV-1" source="WIyWlLk6GJQsqaUBKTNV-3" target="nTinVmcu9oHWkOwA1oCq-1">
          <mxGeometry relative="1" as="geometry" />
        </mxCell>
        <mxCell id="nTinVmcu9oHWkOwA1oCq-8" value="" style="edgeStyle=orthogonalEdgeStyle;rounded=0;orthogonalLoop=1;jettySize=auto;html=1;fontFamily=Times New Roman;fontSize=11;" edge="1" parent="WIyWlLk6GJQsqaUBKTNV-1" source="WIyWlLk6GJQsqaUBKTNV-3" target="nTinVmcu9oHWkOwA1oCq-7">
          <mxGeometry relative="1" as="geometry" />
        </mxCell>
        <mxCell id="WIyWlLk6GJQsqaUBKTNV-3" value="&lt;font face=&quot;Times New Roman&quot;&gt;&lt;span style=&quot;font-size: 34px;&quot;&gt;IDEA&lt;/span&gt;&lt;/font&gt;" style="rounded=1;whiteSpace=wrap;html=1;fontSize=12;glass=0;strokeWidth=1;shadow=0;" parent="WIyWlLk6GJQsqaUBKTNV-1" vertex="1">
          <mxGeometry x="160" y="80" width="120" height="40" as="geometry" />
        </mxCell>
        <mxCell id="nTinVmcu9oHWkOwA1oCq-5" value="" style="edgeStyle=orthogonalEdgeStyle;rounded=0;orthogonalLoop=1;jettySize=auto;html=1;fontFamily=Times New Roman;fontSize=12;" edge="1" parent="WIyWlLk6GJQsqaUBKTNV-1" source="nTinVmcu9oHWkOwA1oCq-1" target="nTinVmcu9oHWkOwA1oCq-4">
          <mxGeometry relative="1" as="geometry" />
        </mxCell>
        <mxCell id="nTinVmcu9oHWkOwA1oCq-1" value="&lt;font style=&quot;font-size: 12px;&quot;&gt;Bill is complicated and difficult to explain&lt;/font&gt;" style="whiteSpace=wrap;html=1;rounded=1;glass=0;strokeWidth=1;shadow=0;fontFamily=Times New Roman;fontSize=20;" vertex="1" parent="WIyWlLk6GJQsqaUBKTNV-1">
          <mxGeometry x="-20" y="70" width="120" height="60" as="geometry" />
        </mxCell>
        <mxCell id="nTinVmcu9oHWkOwA1oCq-4" value="&lt;font style=&quot;font-size: 11px;&quot;&gt;Dies unless added to omnibus bill or connected to powerful interest group&lt;/font&gt;" style="whiteSpace=wrap;html=1;rounded=1;glass=0;strokeWidth=1;shadow=0;fontFamily=Times New Roman;fontSize=20;" vertex="1" parent="WIyWlLk6GJQsqaUBKTNV-1">
          <mxGeometry x="-20" y="210" width="120" height="60" as="geometry" />
        </mxCell>
        <mxCell id="nTinVmcu9oHWkOwA1oCq-10" value="" style="edgeStyle=orthogonalEdgeStyle;rounded=0;orthogonalLoop=1;jettySize=auto;html=1;fontFamily=Times New Roman;fontSize=13;" edge="1" parent="WIyWlLk6GJQsqaUBKTNV-1" source="nTinVmcu9oHWkOwA1oCq-7" target="nTinVmcu9oHWkOwA1oCq-9">
          <mxGeometry relative="1" as="geometry" />
        </mxCell>
        <mxCell id="nTinVmcu9oHWkOwA1oCq-7" value="&lt;font style=&quot;font-size: 13px;&quot; face=&quot;Times New Roman&quot;&gt;Easy to explain bill&lt;/font&gt;" style="rounded=1;whiteSpace=wrap;html=1;fontSize=12;glass=0;strokeWidth=1;shadow=0;" vertex="1" parent="WIyWlLk6GJQsqaUBKTNV-1">
          <mxGeometry x="360" y="80" width="120" height="40" as="geometry" />
        </mxCell>
        <mxCell id="nTinVmcu9oHWkOwA1oCq-12" value="" style="edgeStyle=orthogonalEdgeStyle;rounded=0;orthogonalLoop=1;jettySize=auto;html=1;fontFamily=Times New Roman;fontSize=13;" edge="1" parent="WIyWlLk6GJQsqaUBKTNV-1" source="nTinVmcu9oHWkOwA1oCq-9" target="nTinVmcu9oHWkOwA1oCq-11">
          <mxGeometry relative="1" as="geometry" />
        </mxCell>
        <mxCell id="nTinVmcu9oHWkOwA1oCq-16" value="" style="edgeStyle=orthogonalEdgeStyle;rounded=0;orthogonalLoop=1;jettySize=auto;html=1;fontFamily=Times New Roman;fontSize=34;" edge="1" parent="WIyWlLk6GJQsqaUBKTNV-1" source="nTinVmcu9oHWkOwA1oCq-9" target="nTinVmcu9oHWkOwA1oCq-15">
          <mxGeometry relative="1" as="geometry" />
        </mxCell>
        <mxCell id="nTinVmcu9oHWkOwA1oCq-9" value="&lt;font style=&quot;font-size: 13px;&quot; face=&quot;Times New Roman&quot;&gt;Affects a lot of people&lt;/font&gt;" style="rounded=1;whiteSpace=wrap;html=1;fontSize=12;glass=0;strokeWidth=1;shadow=0;" vertex="1" parent="WIyWlLk6GJQsqaUBKTNV-1">
          <mxGeometry x="360" y="200" width="120" height="40" as="geometry" />
        </mxCell>
        <mxCell id="nTinVmcu9oHWkOwA1oCq-14" value="" style="edgeStyle=orthogonalEdgeStyle;rounded=0;orthogonalLoop=1;jettySize=auto;html=1;fontFamily=Times New Roman;fontSize=13;" edge="1" parent="WIyWlLk6GJQsqaUBKTNV-1" source="nTinVmcu9oHWkOwA1oCq-11" target="nTinVmcu9oHWkOwA1oCq-13">
          <mxGeometry relative="1" as="geometry" />
        </mxCell>
        <mxCell id="nTinVmcu9oHWkOwA1oCq-11" value="&lt;font style=&quot;font-size: 13px;&quot; face=&quot;Times New Roman&quot;&gt;No?&lt;/font&gt;" style="rounded=1;whiteSpace=wrap;html=1;fontSize=12;glass=0;strokeWidth=1;shadow=0;" vertex="1" parent="WIyWlLk6GJQsqaUBKTNV-1">
          <mxGeometry x="160" y="200" width="120" height="40" as="geometry" />
        </mxCell>
        <mxCell id="nTinVmcu9oHWkOwA1oCq-13" value="&lt;font style=&quot;font-size: 13px;&quot; face=&quot;Times New Roman&quot;&gt;Dies&lt;/font&gt;" style="rounded=1;whiteSpace=wrap;html=1;fontSize=12;glass=0;strokeWidth=1;shadow=0;" vertex="1" parent="WIyWlLk6GJQsqaUBKTNV-1">
          <mxGeometry x="160" y="320" width="120" height="40" as="geometry" />
        </mxCell>
        <mxCell id="nTinVmcu9oHWkOwA1oCq-18" value="" style="edgeStyle=orthogonalEdgeStyle;rounded=0;orthogonalLoop=1;jettySize=auto;html=1;fontFamily=Times New Roman;fontSize=34;" edge="1" parent="WIyWlLk6GJQsqaUBKTNV-1" source="nTinVmcu9oHWkOwA1oCq-15" target="nTinVmcu9oHWkOwA1oCq-17">
          <mxGeometry relative="1" as="geometry" />
        </mxCell>
        <mxCell id="nTinVmcu9oHWkOwA1oCq-15" value="&lt;font style=&quot;font-size: 13px;&quot; face=&quot;Times New Roman&quot;&gt;Sounds popular&lt;/font&gt;" style="rounded=1;whiteSpace=wrap;html=1;fontSize=12;glass=0;strokeWidth=1;shadow=0;" vertex="1" parent="WIyWlLk6GJQsqaUBKTNV-1">
          <mxGeometry x="560" y="200" width="120" height="40" as="geometry" />
        </mxCell>
        <mxCell id="nTinVmcu9oHWkOwA1oCq-21" value="" style="edgeStyle=orthogonalEdgeStyle;rounded=0;orthogonalLoop=1;jettySize=auto;html=1;fontFamily=Times New Roman;fontSize=34;" edge="1" parent="WIyWlLk6GJQsqaUBKTNV-1" source="nTinVmcu9oHWkOwA1oCq-17" target="nTinVmcu9oHWkOwA1oCq-20">
          <mxGeometry relative="1" as="geometry" />
        </mxCell>
        <mxCell id="nTinVmcu9oHWkOwA1oCq-17" value="&lt;font style=&quot;font-size: 13px;&quot; face=&quot;Times New Roman&quot;&gt;Congressman signs on to sponsor bill&lt;/font&gt;" style="rounded=1;whiteSpace=wrap;html=1;fontSize=12;glass=0;strokeWidth=1;shadow=0;" vertex="1" parent="WIyWlLk6GJQsqaUBKTNV-1">
          <mxGeometry x="560" y="320" width="120" height="40" as="geometry" />
        </mxCell>
        <mxCell id="nTinVmcu9oHWkOwA1oCq-23" value="" style="edgeStyle=orthogonalEdgeStyle;rounded=0;orthogonalLoop=1;jettySize=auto;html=1;fontFamily=Times New Roman;fontSize=34;" edge="1" parent="WIyWlLk6GJQsqaUBKTNV-1" source="nTinVmcu9oHWkOwA1oCq-20" target="nTinVmcu9oHWkOwA1oCq-22">
          <mxGeometry relative="1" as="geometry" />
        </mxCell>
        <mxCell id="nTinVmcu9oHWkOwA1oCq-25" value="" style="edgeStyle=orthogonalEdgeStyle;rounded=0;orthogonalLoop=1;jettySize=auto;html=1;fontFamily=Times New Roman;fontSize=34;" edge="1" parent="WIyWlLk6GJQsqaUBKTNV-1" source="nTinVmcu9oHWkOwA1oCq-20" target="nTinVmcu9oHWkOwA1oCq-24">
          <mxGeometry relative="1" as="geometry" />
        </mxCell>
        <mxCell id="nTinVmcu9oHWkOwA1oCq-20" value="&lt;font style=&quot;font-size: 13px;&quot; face=&quot;Times New Roman&quot;&gt;Bill goes to &quot;hopper to be written up&lt;/font&gt;" style="rounded=1;whiteSpace=wrap;html=1;fontSize=12;glass=0;strokeWidth=1;shadow=0;" vertex="1" parent="WIyWlLk6GJQsqaUBKTNV-1">
          <mxGeometry x="560" y="440" width="120" height="40" as="geometry" />
        </mxCell>
        <mxCell id="nTinVmcu9oHWkOwA1oCq-27" value="" style="edgeStyle=orthogonalEdgeStyle;rounded=0;orthogonalLoop=1;jettySize=auto;html=1;fontFamily=Times New Roman;fontSize=34;" edge="1" parent="WIyWlLk6GJQsqaUBKTNV-1" source="nTinVmcu9oHWkOwA1oCq-22">
          <mxGeometry relative="1" as="geometry">
            <mxPoint x="420" y="560" as="targetPoint" />
          </mxGeometry>
        </mxCell>
        <mxCell id="nTinVmcu9oHWkOwA1oCq-22" value="&lt;font style=&quot;&quot; face=&quot;Times New Roman&quot;&gt;&lt;span style=&quot;font-size: 13px;&quot;&gt;House puts bill on congressional&amp;nbsp;record&lt;/span&gt;&lt;/font&gt;" style="rounded=1;whiteSpace=wrap;html=1;fontSize=12;glass=0;strokeWidth=1;shadow=0;" vertex="1" parent="WIyWlLk6GJQsqaUBKTNV-1">
          <mxGeometry x="360" y="440" width="120" height="40" as="geometry" />
        </mxCell>
        <mxCell id="nTinVmcu9oHWkOwA1oCq-31" value="" style="edgeStyle=orthogonalEdgeStyle;rounded=0;orthogonalLoop=1;jettySize=auto;html=1;fontFamily=Times New Roman;fontSize=34;" edge="1" parent="WIyWlLk6GJQsqaUBKTNV-1" source="nTinVmcu9oHWkOwA1oCq-24">
          <mxGeometry relative="1" as="geometry">
            <mxPoint x="820" y="560" as="targetPoint" />
          </mxGeometry>
        </mxCell>
        <mxCell id="nTinVmcu9oHWkOwA1oCq-24" value="&lt;font style=&quot;font-size: 13px;&quot; face=&quot;Times New Roman&quot;&gt;Senate: Bill read aloud&lt;/font&gt;" style="rounded=1;whiteSpace=wrap;html=1;fontSize=12;glass=0;strokeWidth=1;shadow=0;" vertex="1" parent="WIyWlLk6GJQsqaUBKTNV-1">
          <mxGeometry x="760" y="440" width="120" height="40" as="geometry" />
        </mxCell>
        <mxCell id="nTinVmcu9oHWkOwA1oCq-28" value="" style="endArrow=classic;html=1;rounded=0;fontFamily=Times New Roman;fontSize=34;" edge="1" parent="WIyWlLk6GJQsqaUBKTNV-1">
          <mxGeometry width="50" height="50" relative="1" as="geometry">
            <mxPoint x="420" y="560" as="sourcePoint" />
            <mxPoint x="560" y="560" as="targetPoint" />
          </mxGeometry>
        </mxCell>
        <mxCell id="nTinVmcu9oHWkOwA1oCq-29" value="" style="endArrow=classic;html=1;rounded=0;fontFamily=Times New Roman;fontSize=34;" edge="1" parent="WIyWlLk6GJQsqaUBKTNV-1">
          <mxGeometry width="50" height="50" relative="1" as="geometry">
            <mxPoint x="830" y="560" as="sourcePoint" />
            <mxPoint x="680" y="560" as="targetPoint" />
          </mxGeometry>
        </mxCell>
        <mxCell id="nTinVmcu9oHWkOwA1oCq-36" value="" style="edgeStyle=orthogonalEdgeStyle;rounded=0;orthogonalLoop=1;jettySize=auto;html=1;fontFamily=Times New Roman;fontSize=34;" edge="1" parent="WIyWlLk6GJQsqaUBKTNV-1" source="nTinVmcu9oHWkOwA1oCq-32" target="nTinVmcu9oHWkOwA1oCq-35">
          <mxGeometry relative="1" as="geometry">
            <Array as="points">
              <mxPoint x="620" y="615" />
              <mxPoint x="410" y="615" />
              <mxPoint x="410" y="675" />
            </Array>
          </mxGeometry>
        </mxCell>
        <mxCell id="nTinVmcu9oHWkOwA1oCq-32" value="&lt;font style=&quot;font-size: 13px;&quot; face=&quot;Times New Roman&quot;&gt;Bill gets a number&lt;br&gt;H.R. #, H. Res #, S#, S. Res #&lt;br&gt;&lt;/font&gt;" style="rounded=1;whiteSpace=wrap;html=1;fontSize=12;glass=0;strokeWidth=1;shadow=0;" vertex="1" parent="WIyWlLk6GJQsqaUBKTNV-1">
          <mxGeometry x="560" y="540" width="120" height="40" as="geometry" />
        </mxCell>
        <mxCell id="nTinVmcu9oHWkOwA1oCq-40" value="" style="edgeStyle=orthogonalEdgeStyle;rounded=0;orthogonalLoop=1;jettySize=auto;html=1;fontFamily=Times New Roman;fontSize=34;" edge="1" parent="WIyWlLk6GJQsqaUBKTNV-1" source="nTinVmcu9oHWkOwA1oCq-35" target="nTinVmcu9oHWkOwA1oCq-39">
          <mxGeometry relative="1" as="geometry">
            <Array as="points">
              <mxPoint x="490" y="680" />
              <mxPoint x="490" y="680" />
            </Array>
          </mxGeometry>
        </mxCell>
        <mxCell id="nTinVmcu9oHWkOwA1oCq-35" value="&lt;font style=&quot;font-size: 13px;&quot; face=&quot;Times New Roman&quot;&gt;Simple Resolution — address internal issue of chamber&lt;br&gt;&lt;/font&gt;" style="rounded=1;whiteSpace=wrap;html=1;fontSize=12;glass=0;strokeWidth=1;shadow=0;" vertex="1" parent="WIyWlLk6GJQsqaUBKTNV-1">
          <mxGeometry x="354" y="650" width="120" height="50" as="geometry" />
        </mxCell>
        <mxCell id="nTinVmcu9oHWkOwA1oCq-38" value="" style="endArrow=classic;html=1;rounded=0;fontFamily=Times New Roman;fontSize=34;" edge="1" parent="WIyWlLk6GJQsqaUBKTNV-1">
          <mxGeometry width="50" height="50" relative="1" as="geometry">
            <mxPoint x="560" y="620" as="sourcePoint" />
            <mxPoint x="560" y="650" as="targetPoint" />
          </mxGeometry>
        </mxCell>
        <mxCell id="nTinVmcu9oHWkOwA1oCq-39" value="Concurrent Resolution — expression of congress&#39;s opinion" style="whiteSpace=wrap;html=1;rounded=1;glass=0;strokeWidth=1;shadow=0;" vertex="1" parent="WIyWlLk6GJQsqaUBKTNV-1">
          <mxGeometry x="510" y="650" width="120" height="60" as="geometry" />
        </mxCell>
      </root>
    </mxGraphModel>
  </diagram>
</mxfile>
